# File created by Blade
# Date/Time:  Tue Apr 07 20:17:56 2015
# Frame Rate: 120.000 fps
#------------------------------------------------------
:FULLY-SPECIFIED
:DEGREES
1436
root 5.790312 35.195513 -10.842920 43.522028 -10.208375 -56.113331
Spine -19.446515 12.106705 39.574171
Head 7.362000 4.915026 30.742336
LeftShoulder -25.697646 43.871827 20.981521
LeftArm 52.215307 -62.129471 -83.573979
LeftForeArm -3.241905 -0.000000 12.145573
LeftHand 16.965730 -0.000000 17.729606
LeftHandThumb1 -26.253704 0.000000 33.147579
RightShoulder -16.800841 5.928964 -15.693636
RightArm -12.813972 59.382758 55.132143
RightForeArm 35.458697 0.000000 63.331816
RightHand 3.148369 -0.000000 -22.600389
RightHandThumb1 -24.326973 -0.000000 -32.862282
LeftUpLeg -22.528962 13.025824 51.753282
LeftLeg 12.397579 -0.000000 -0.000000
LeftFoot -8.079515 20.923170 -12.612078
LeftToeBase -12.851807 -0.000000 0.000000
RightUpLeg -40.838043 -35.989194 -60.689843
RightLeg 72.121590 -0.000000 -0.000000
RightFoot 43.566629 0.623821 -7.586347
RightToeBase 38.481431 -0.000000 -0.000000
1437
root 5.804655 35.192882 -10.820138 43.680189 -10.513783 -56.090628
Spine -19.436252 12.169264 39.495937
Head 7.492510 5.105451 30.741510
LeftShoulder -25.748497 43.880316 20.959196
LeftArm 52.152536 -62.157777 -83.512468
LeftForeArm -3.445465 -0.000000 11.751830
LeftHand 17.115426 -0.000000 17.450271
LeftHandThumb1 -26.253704 0.000000 33.147579
RightShoulder -16.764679 5.923360 -15.643052
RightArm -12.690992 59.331715 55.319473
RightForeArm 35.445519 -0.000000 63.261409
RightHand 3.117714 -0.000000 -22.680648
RightHandThumb1 -24.326973 -0.000000 -32.862282
LeftUpLeg -22.409578 12.934513 51.614676
LeftLeg 12.449677 -0.000000 -0.000000
LeftFoot -8.155012 21.051975 -12.693481
LeftToeBase -13.027600 -0.000000 0.000000
RightUpLeg -41.211333 -36.155559 -60.479359
RightLeg 72.298372 -0.000000 -0.000000
RightFoot 43.555041 0.689461 -7.588853
RightToeBase 38.515048 -0.000000 -0.000000
1438
root 5.820822 35.191708 -10.801371 43.859340 -10.803031 -56.077422
Spine -19.450930 12.276979 39.416587
Head 7.601262 5.255020 30.734330
LeftShoulder -25.730959 43.909704 20.998436
LeftArm 51.960534 -62.112398 -83.323449
LeftForeArm -3.653098 -0.000000 11.391966
LeftHand 17.061074 -0.000000 17.330526
LeftHandThumb1 -26.253704 0.000000 33.147579
RightShoulder -16.742540 5.897232 -15.574794
RightArm -12.622809 59.237446 55.426890
RightForeArm 35.392072 -0.000000 63.218222
RightHand 3.144722 -0.000000 -22.802705
RightHandThumb1 -24.326973 -0.000000 -32.862282
LeftUpLeg -22.340464 12.857207 51.485505
LeftLeg 12.530785 -0.000000 -0.000000
LeftFoot -8.211872 21.225380 -12.766509
LeftToeBase -13.138482 -0.000000 0.000000
RightUpLeg -41.635092 -36.335652 -60.218630
RightLeg 72.483222 -0.000000 -0.000000
RightFoot 43.602672 0.722450 -7.589115
RightToeBase 38.445956 -0.000000 -0.000000
1439
root 5.837352 35.190717 -10.783861 44.026326 -11.054522 -56.043114
Spine -19.468453 12.326098 39.353278
Head 7.688273 5.458507 30.721887
LeftShoulder -25.755380 43.937716 21.009578
LeftArm 51.753140 -62.058784 -83.112567
LeftForeArm -3.817170 0.000000 11.048437
LeftHand 16.980433 -0.000000 17.228069
LeftHandThumb1 -26.253704 0.000000 33.147579
RightShoulder -16.659844 5.872113 -15.489892
RightArm -12.636933 59.172562 55.433126
RightForeArm 35.346714 -0.000000 63.178265
RightHand 3.120631 -0.000000 -22.849014
RightHandThumb1 -24.326973 -0.000000 -32.862282
LeftUpLeg -22.321024 12.717952 51.362660
LeftLeg 12.631323 -0.000000 -0.000000
LeftFoot -8.251609 21.446692 -12.803756
LeftToeBase -13.251351 -0.000000 0.000000
RightUpLeg -42.009124 -36.509293 -59.976384
RightLeg 72.657041 -0.000000 -0.000000
RightFoot 43.619283 0.811720 -7.536254
RightToeBase 38.470807 -0.000000 -0.000000
1440
root 5.855217 35.187204 -10.767030 44.195876 -11.312852 -55.976612
Spine -19.488004 12.361570 39.264977
Head 7.733846 5.658346 30.660251
LeftShoulder -25.825311 43.962215 20.997849
LeftArm 51.643642 -61.984772 -82.978553
LeftForeArm -3.940357 -0.000000 10.676795
LeftHand 17.058580 -0.000000 17.101108
LeftHandThumb1 -26.253704 0.000000 33.147579
RightShoulder -16.601256 5.794990 -15.400061
RightArm -12.523323 59.148402 55.597720
RightForeArm 35.175655 -0.000000 63.184844
RightHand 2.847071 -0.000000 -22.500343
RightHandThumb1 -24.326973 -0.000000 -32.862282
LeftUpLeg -22.338783 12.628710 51.181567
LeftLeg 12.742247 -0.000000 -0.000000
LeftFoot -8.297744 21.628622 -12.832102
LeftToeBase -13.328616 -0.000000 0.000000
RightUpLeg -42.376700 -36.710442 -59.765972
RightLeg 72.807771 -0.000000 -0.000000
RightFoot 43.631853 0.939719 -7.501932
RightToeBase 38.490264 -0.000000 -0.000000
1441
root 5.875036 35.184409 -10.751929 44.330164 -11.511569 -55.971242
Spine -19.438882 12.419190 39.286213
Head 7.725603 5.796423 30.533156
LeftShoulder -25.860357 43.973806 20.987827
LeftArm 51.486471 -61.875376 -82.811568
LeftForeArm -4.032164 -0.000000 10.370557
LeftHand 17.041376 -0.000000 17.088297
LeftHandThumb1 -26.253704 0.000000 33.147579
RightShoulder -16.565808 5.708192 -15.347683
RightArm -12.412690 59.111553 55.746100
RightForeArm 35.006290 0.000000 63.163352
RightHand 2.653114 -0.000000 -22.166900
RightHandThumb1 -24.326973 -0.000000 -32.862282
LeftUpLeg -22.348680 12.571617 51.076229
LeftLeg 12.874029 -0.000000 -0.000000
LeftFoot -8.372365 21.735201 -12.894420
LeftToeBase -13.421496 -0.000000 0.000000
RightUpLeg -42.739605 -36.883954 -59.460141
RightLeg 72.942810 -0.000000 -0.000000
RightFoot 43.641086 0.987631 -7.456264
RightToeBase 38.458216 -0.000000 -0.000000
1442
root 5.895683 35.178065 -10.738994 44.463316 -11.739652 -55.923284
Spine -19.378138 12.454267 39.251313
Head 7.665568 5.962446 30.386253
LeftShoulder -25.894056 43.971024 20.979828
LeftArm 51.376131 -61.838588 -82.736721
LeftForeArm -4.116417 -0.000000 10.110872
LeftHand 17.069278 -0.000000 16.919517
LeftHandThumb1 -26.253704 0.000000 33.147579
RightShoulder -16.521666 5.594109 -15.281871
RightArm -12.193096 59.028715 55.965863
RightForeArm 34.995325 0.000000 63.086092
RightHand 2.643780 -0.000000 -22.167404
RightHandThumb1 -24.326973 -0.000000 -32.862282
LeftUpLeg -22.383376 12.620808 50.879484
LeftLeg 13.003905 -0.000000 -0.000000
LeftFoot -8.451828 21.760348 -12.927813
LeftToeBase -13.428720 -0.000000 0.000000
RightUpLeg -43.110060 -37.078629 -59.208884
RightLeg 73.068702 -0.000000 -0.000000
RightFoot 43.613446 1.048479 -7.463211
RightToeBase 38.458703 -0.000000 -0.000000
1443
root 5.914002 35.170973 -10.726825 44.546439 -11.923546 -55.895623
Spine -19.282429 12.466943 39.268147
Head 7.605930 6.087040 30.199899
LeftShoulder -25.918395 43.982228 20.983252
LeftArm 51.338272 -61.759802 -82.710474
LeftForeArm -4.153427 0.000000 9.828148
LeftHand 17.105878 -0.000000 16.944885
LeftHandThumb1 -26.253704 0.000000 33.147579
RightShoulder -16.482927 5.484875 -15.235520
RightArm -11.991495 58.914891 56.174649
RightForeArm 35.108085 -0.000000 62.973487
RightHand 2.601653 0.000000 -22.133210
RightHandThumb1 -24.326973 -0.000000 -32.862282
LeftUpLeg -22.385416 12.741607 50.704135
LeftLeg 13.093293 -0.000000 -0.000000
LeftFoot -8.518741 21.689661 -12.889224
LeftToeBase -13.472133 -0.000000 0.000000
RightUpLeg -43.427080 -37.237023 -58.947046
RightLeg 73.191316 -0.000000 -0.000000
RightFoot 43.528377 1.117173 -7.485241
RightToeBase 38.498525 -0.000000 -0.000000
1444
root 5.934317 35.163986 -10.717963 44.618278 -12.121546 -55.914453
Spine -19.109802 12.509532 39.330470
Head 7.511940 6.217600 29.966252
LeftShoulder -25.995971 44.041766 20.910039
LeftArm 51.552524 -61.710228 -82.928983
LeftForeArm -4.196006 -0.000000 9.596964
LeftHand 17.082191 -0.000000 16.914779
LeftHandThumb1 -26.253704 0.000000 33.147579
RightShoulder -16.437881 5.494485 -15.264035
RightArm -11.946694 58.784529 56.276578
RightForeArm 35.321011 0.000000 62.800260
RightHand 2.704903 -0.000000 -22.250429
RightHandThumb1 -24.326973 -0.000000 -32.862282
LeftUpLeg -22.318153 12.925563 50.550018
LeftLeg 13.130922 -0.000000 -0.000000
LeftFoot -8.581961 21.555187 -12.885152
LeftToeBase -13.624864 -0.000000 0.000000
RightUpLeg -43.798438 -37.351287 -58.628547
RightLeg 73.289047 -0.000000 -0.000000
RightFoot 43.513072 1.159236 -7.527979
RightToeBase 38.494751 -0.000000 -0.000000
1445
root 5.953659 35.156568 -10.707518 44.685498 -12.303374 -55.926240
Spine -18.942532 12.517143 39.407222
Head 7.434384 6.334935 29.722762
LeftShoulder -26.050415 44.014673 20.860579
LeftArm 51.477131 -61.655420 -82.853797
LeftForeArm -4.258941 -0.000000 9.350123
LeftHand 17.206140 0.000000 16.866695
LeftHandThumb1 -26.253704 0.000000 33.147579
RightShoulder -16.379965 5.512010 -15.279153
RightArm -11.852939 58.679189 56.414545
RightForeArm 35.610546 -0.000000 62.639789
RightHand 2.581415 -0.000000 -22.140792
RightHandThumb1 -24.326973 -0.000000 -32.862282
LeftUpLeg -22.225063 13.152418 50.382102
LeftLeg 13.102370 -0.000000 -0.000000
LeftFoot -8.627495 21.391558 -12.801289
LeftToeBase -13.591376 -0.000000 0.000000
RightUpLeg -44.136892 -37.458117 -58.325739
RightLeg 73.356205 -0.000000 -0.000000
RightFoot 43.523931 1.137960 -7.476311
RightToeBase 38.469555 -0.000000 -0.000000
1446
root 5.970427 35.149677 -10.698995 44.738583 -12.448337 -55.936536
Spine -18.788188 12.524238 39.484672
Head 7.365238 6.448338 29.489030
LeftShoulder -26.044827 44.002037 20.886179
LeftArm 51.400667 -61.562715 -82.817958
LeftForeArm -4.417289 -0.000000 9.187671
LeftHand 17.109002 -0.000000 16.849033
LeftHandThumb1 -26.253704 0.000000 33.147579
RightShoulder -16.348506 5.457148 -15.237207
RightArm -11.581816 58.574225 56.670153
RightForeArm 35.715653 -0.000000 62.501728
RightHand 2.508914 -0.000000 -22.139578
RightHandThumb1 -24.326973 -0.000000 -32.862282
LeftUpLeg -22.129755 13.405148 50.231832
LeftLeg 13.039256 -0.000000 -0.000000
LeftFoot -8.646469 21.159090 -12.691491
LeftToeBase -13.663815 -0.000000 0.000000
RightUpLeg -44.446609 -37.575491 -58.024479
RightLeg 73.440454 -0.000000 -0.000000
RightFoot 43.524596 1.101992 -7.401957
RightToeBase 38.368407 -0.000000 -0.000000
1447
root 5.987955 35.142953 -10.691652 44.796830 -12.580998 -55.939856
Spine -18.650820 12.530621 39.559227
Head 7.318050 6.594845 29.273429
LeftShoulder -26.083861 44.055187 20.853267
LeftArm 51.650055 -61.526612 -83.068394
LeftForeArm -4.528251 -0.000000 8.993812
LeftHand 17.152771 -0.000000 16.643000
LeftHandThumb1 -26.253704 0.000000 33.147579
RightShoulder -16.315721 5.416723 -15.184537
RightArm -11.320779 58.432275 56.887196
RightForeArm 35.780344 -0.000000 62.427783
RightHand 2.424184 -0.000000 -22.357450
RightHandThumb1 -24.326973 -0.000000 -32.862282
LeftUpLeg -22.040716 13.583328 50.105896
LeftLeg 12.961937 -0.000000 -0.000000
LeftFoot -8.641637 20.994868 -12.534017
LeftToeBase -13.692664 -0.000000 0.000000
RightUpLeg -44.750546 -37.699606 -57.724301
RightLeg 73.509724 -0.000000 -0.000000
RightFoot 43.520324 1.170681 -7.389828
RightToeBase 38.385377 -0.000000 -0.000000
